<?xml version="1.0" standalone="no"?>
<!DOCTYPE svg PUBLIC "-//W3C//DTD SVG 20010904//EN"
 "http://www.w3.org/TR/2001/REC-SVG-20010904/DTD/svg10.dtd">
<svg version="1.0" xmlns="http://www.w3.org/2000/svg"
 width="2000.000000pt" height="2000.000000pt" viewBox="0 0 2000.000000 2000.000000"
 preserveAspectRatio="xMidYMid meet">

<g transform="translate(0.000000,2000.000000) scale(0.100000,-0.100000)"
fill="#000000" stroke="none">
<path d="M10101 15811 c-20 -20 -21 -29 -21 -290 0 -297 -4 -281 66 -281 19 0
35 1 36 3 1 1 4 93 7 205 4 115 10 202 15 203 6 0 27 -48 48 -108 115 -321
104 -302 181 -310 47 -5 57 -3 76 16 20 20 21 29 21 284 0 191 -3 266 -12 275
-7 7 -26 12 -43 12 -53 0 -55 -7 -55 -217 0 -220 -9 -241 -50 -120 -53 155
-106 294 -120 316 -12 17 -28 23 -71 28 -49 5 -59 3 -78 -16z"/>
<path d="M9514 15764 c-17 -24 -15 -33 39 -250 31 -123 64 -240 72 -260 14
-33 17 -35 57 -32 35 2 45 8 56 30 14 29 10 46 -77 381 -40 153 -42 157 -91
157 -31 0 -43 -5 -56 -26z"/>
<path d="M10994 15582 c-20 -13 -32 -47 -24 -67 4 -11 28 -31 54 -43 25 -13
46 -27 46 -32 0 -5 -18 -48 -41 -97 -100 -214 -126 -272 -134 -300 -8 -30 26
-63 66 -63 29 0 33 5 98 143 37 78 80 170 96 205 16 34 32 62 35 62 4 0 20 -6
36 -14 59 -28 72 -29 99 -2 48 49 15 77 -212 179 -85 38 -100 42 -119 29z"/>
<path d="M8868 15561 c-91 -46 -138 -108 -138 -183 0 -51 24 -92 154 -265 84
-113 137 -134 233 -95 109 45 169 153 131 239 -14 31 -157 234 -191 271 -50
54 -122 66 -189 33z m84 -113 c19 -15 166 -222 180 -254 13 -28 6 -48 -25 -69
-37 -24 -67 -6 -121 72 -26 37 -67 97 -92 132 -32 46 -43 70 -38 85 8 27 32
46 59 46 12 0 28 -6 37 -12z"/>
<path d="M8274 15080 c-49 -25 -67 -43 -128 -133 -49 -73 -56 -105 -28 -130
30 -27 355 -246 399 -269 39 -20 43 -20 67 -4 19 12 26 25 26 50 0 28 -7 38
-42 62 -24 16 -62 43 -85 60 -39 29 -41 32 -27 52 32 46 64 122 64 151 0 72
-63 150 -137 170 -52 15 -62 14 -109 -9z m107 -129 c32 -33 36 -58 15 -100
-28 -53 -36 -53 -109 -5 -75 50 -74 45 -18 107 33 37 74 36 112 -2z"/>
<path d="M11945 14493 c-360 -204 -350 -197 -353 -236 -3 -29 2 -39 23 -53 26
-17 28 -16 122 32 90 46 96 48 107 30 80 -136 162 -174 263 -125 81 39 119
124 93 204 -16 49 -88 177 -108 193 -26 20 -42 15 -147 -45z m138 -112 c39
-66 4 -141 -67 -141 -28 0 -41 7 -65 37 -17 21 -31 43 -31 50 0 12 115 83 135
83 6 0 18 -13 28 -29z"/>
<path d="M8079 13756 c-2 -2 -33 -7 -69 -11 -36 -3 -72 -8 -80 -10 -8 -2 -44
-7 -80 -10 -36 -3 -72 -8 -80 -10 -8 -2 -42 -6 -75 -10 -83 -9 -97 -18 -93
-62 5 -56 18 -59 180 -39 217 28 252 30 244 18 -3 -6 -86 -52 -184 -102 -97
-50 -182 -96 -189 -103 -24 -24 -20 -116 5 -148 20 -24 21 -24 272 11 36 5
110 14 165 21 128 16 137 20 133 67 -5 59 -19 61 -233 34 -165 -20 -210 -22
-194 -8 2 2 81 43 174 91 205 106 218 116 217 180 -2 67 -23 95 -71 95 -21 0
-40 -2 -42 -4z"/>
<path d="M11832 13716 c-65 -13 -82 -25 -82 -60 0 -41 27 -56 95 -49 l62 6 13
-81 c7 -44 10 -85 6 -90 -3 -5 -28 -12 -55 -16 -62 -8 -84 -33 -69 -76 12 -36
37 -40 137 -22 71 13 347 131 401 172 29 22 31 103 4 148 -16 27 -25 32 -88
42 -39 6 -113 17 -164 25 -110 18 -174 18 -260 1z m376 -124 c24 -4 43 -11 43
-16 1 -10 -185 -96 -207 -96 -13 0 -30 83 -25 126 1 10 74 5 189 -14z"/>
<path d="M8010 12899 c-124 -50 -233 -98 -242 -106 -32 -28 -13 -99 28 -109
25 -6 465 165 497 194 39 35 4 111 -53 112 -3 0 -106 -41 -230 -91z"/>
<path d="M12186 12948 c-8 -18 -17 -45 -21 -60 -7 -36 -14 -36 -205 8 -249 57
-273 57 -282 -7 -7 -48 20 -61 223 -103 248 -52 230 -42 223 -118 -5 -57 -4
-64 15 -76 30 -18 67 -5 79 26 6 15 25 89 42 165 26 120 29 142 18 165 -10 20
-22 28 -45 30 -29 3 -35 -1 -47 -30z"/>
<path d="M11466 12471 c-10 -4 -24 -18 -31 -31 -11 -21 -11 -29 3 -52 8 -14
25 -31 36 -37 12 -6 35 -20 51 -31 17 -11 37 -23 45 -26 39 -18 41 -25 12 -75
-15 -27 -33 -49 -39 -49 -7 0 -42 18 -79 40 -36 23 -79 43 -95 47 -57 11 -90
-51 -51 -95 9 -11 108 -74 220 -141 218 -129 253 -142 273 -97 20 44 4 71 -68
115 -38 22 -74 45 -82 50 -11 7 -8 18 15 60 16 28 33 51 37 51 4 0 42 -20 85
-45 84 -49 110 -54 135 -27 22 24 21 58 -1 80 -21 21 -393 249 -426 261 -11 5
-29 5 -40 2z"/>
<path d="M8477 12333 c-34 -31 -65 -61 -69 -67 -3 -5 -34 16 -68 47 -50 45
-72 58 -107 63 -151 22 -256 -129 -180 -258 39 -65 139 -168 164 -168 34 0
413 348 413 379 0 31 -30 61 -61 61 -22 0 -45 -15 -92 -57z m-194 -94 c20 -17
37 -36 37 -42 0 -7 -27 -36 -59 -64 l-59 -53 -31 35 c-40 46 -44 83 -13 119
39 43 77 45 125 5z"/>
<path d="M9890 11894 c-443 -27 -850 -207 -1161 -515 -280 -276 -454 -623
-504 -1002 -48 -372 30 -779 212 -1102 114 -202 281 -478 778 -1290 280 -456
566 -924 637 -1040 71 -115 133 -210 139 -210 9 0 217 332 1147 1840 373 605
523 935 609 1340 51 240 21 565 -74 820 -100 267 -232 466 -438 663 -326 311
-726 478 -1185 495 -58 2 -130 3 -160 1z m385 -458 c241 -56 445 -167 610
-332 107 -106 173 -195 233 -312 95 -186 133 -341 134 -552 4 -593 -429 -1102
-1027 -1206 -620 -107 -1218 246 -1415 834 -170 507 33 1081 490 1383 138 91
239 135 413 180 150 38 408 41 562 5z"/>
<path d="M9830 10924 c-86 -19 -231 -91 -303 -151 -198 -165 -291 -420 -243
-663 86 -428 545 -683 968 -536 209 73 388 251 449 446 127 409 -122 822 -549
909 -72 15 -243 12 -322 -5z m611 -192 c104 -75 127 -211 52 -310 -24 -32 -25
-37 -14 -90 67 -334 -215 -634 -549 -583 -396 60 -558 544 -276 825 70 69 136
108 221 131 66 17 169 19 229 5 34 -7 43 -5 70 15 49 38 76 45 151 42 61 -2
76 -6 116 -35z"/>
</g>
</svg>
